<?xml version="1.0" encoding="utf-8"?>
<svg id="master-artboard" viewBox="0 0 1096 780" version="1.1" xmlns="http://www.w3.org/2000/svg" x="0px" y="0px" style="enable-background:new 0 0 1096 780;" width="1096px" height="780px">

<path d="M 2.2 0 H 1096.000049 V 780 H 2.2 V 0 Z" class="st0" style="fill: rgb(210, 120, 57);" transform="matrix(1, 0, 0, 1, 0, 0)"/><path class="st1" d="M729,624.2c0,0-34.3,0-40.9,0h-105c-6.6,0-54.1-0.6-54.1-0.6s49.5-22.5,50.1-70.4c0.1-8-2.6-11.6,4-11.6H685&#10;&#9;&#9;l-2,11.6C683.5,603.2,729,624.2,729,624.2z" style="fill: rgb(255, 255, 255);" transform="matrix(1, 0, 0, 1, 0, 0)"/><path class="st2" d="M879.6,541.2c0,6.6-5.4,12-12,12h-474c-6.6,0-12-5.4-12-12v-312c0-6.6,5.4-12,12-12h474c6.6,0,12,5.4,12,12&#10;&#9;&#9;V541.2z" style="fill: rgb(45, 21, 16);" transform="matrix(1, 0, 0, 1, 0, 0)"/><path class="st1" d="M865.6,506.7c0,4.1-5.5,7.4-12.3,7.4H409.9c-6.8,0-12.3-3.3-12.3-7.4V240.1c0-4.1,5.5-7.4,12.3-7.4h443.3&#10;&#9;&#9;c6.8,0,12.3,3.3,12.3,7.4V506.7z" style="fill: rgb(190, 190, 190);" transform="matrix(1, 0, 0, 1, 0, 0)"/><path class="st2" d="M479.6,605.3c0,6.8-5.4,12.4-12,12.4h-315c-6.6,0-12-5.6-12-12.4V397.6c0-6.8,5.4-12.4,12-12.4h315&#10;&#9;&#9;c6.6,0,12,5.6,12,12.4V605.3z" style="fill: rgb(45, 21, 16);" transform="matrix(1, 0, 0, 1, 0, 0)"/><path class="st1" d="M467.6,588.4c0,6.2-7.9,11.1-17.7,11.1H170.4c-9.8,0-17.7-5-17.7-11.1V412.8c0-6.2,7.9-11.1,17.7-11.1h279.5&#10;&#9;&#9;c9.8,0,17.7,5,17.7,11.1V588.4z" style="fill: rgb(190, 190, 190);" transform="matrix(1, 0, 0, 1, 0, 0)"/><path class="st1" d="M498.5,617.3c0,4-5.1,7.2-11.5,7.2H137c-6.3,0-11.5-3.2-11.5-7.2v-2.2c0-4,5.1-7.2,11.5-7.2h350&#10;&#9;&#9;c6.3,0,11.5,3.2,11.5,7.2V617.3z" style="fill: rgb(255, 255, 255);" transform="matrix(1, 0, 0, 1, 0, 0)"/><path class="st2" d="M357.5,610.2c0,1.3-1,2.3-2.3,2.3h-88.7c-1.3,0-2.3-1-2.3-2.3l0,0c0-1.3,1-2.3,2.3-2.3h88.7&#10;&#9;&#9;C356.5,607.9,357.5,609,357.5,610.2L357.5,610.2z" style="fill: rgb(45, 21, 16);" transform="matrix(1, 0, 0, 1, 0, 0)"/><g transform="matrix(1, 0, 0, 1, 0, 0)">
			<path class="st2" d="M1035,610.9c0,6.6-5.4,12-12,12H811c-6.6,0-12-5.4-12-12V474.2c0-6.6,5.4-12,12-12h212c6.6,0,12,5.4,12,12&#10;&#9;&#9;&#9;&#9;V610.9z" style="fill: rgb(45, 21, 16);"/>
			<path class="st1" d="M1021,598.9c0,6.6-5.1,12-11.5,12h-181c-6.3,0-11.5-5.4-11.5-12V486.2c0-6.6,5.1-12,11.5-12h181&#10;&#9;&#9;&#9;&#9;c6.3,0,11.5,5.4,11.5,12V598.9z" style="fill: rgb(190, 190, 190);"/>
		</g><path d="M 812.4 542.599976 A 4.4 4.4 0 0 1 808 546.999976 A 4.4 4.4 0 0 1 803.6 542.599976 A 4.4 4.4 0 0 1 808 538.199975 A 4.4 4.4 0 0 1 812.4 542.599976 Z" class="st1" style="fill: rgb(255, 255, 255);" transform="matrix(1, 0, 0, 1, 0, 0)"/><path d="M 318.5 394.600006 A 4 4 0 0 1 314.5 398.600006 A 4 4 0 0 1 310.5 394.600006 A 4 4 0 0 1 314.5 390.600006 A 4 4 0 0 1 318.5 394.600006 Z" class="st1" style="fill: rgb(255, 255, 255);" transform="matrix(1, 0, 0, 1, 0, 0)"/><path d="M 640 535.599976 A 7 7 0 0 1 633 542.599976 A 7 7 0 0 1 626 535.599976 A 7 7 0 0 1 633 528.599976 A 7 7 0 0 1 640 535.599976 Z" class="st1" style="fill: rgb(255, 255, 255);" transform="matrix(1, 0, 0, 1, 0, 0)"/><path class="st1" d="M1096,633.9c0,3.9-3.2,7.1-7.2,7.1H7.2c-4,0-7.2-3.2-7.2-7.1l0,0c0-3.9,3.2-7.1,7.2-7.1h1081.6&#10;&#9;&#9;C1092.8,626.8,1096,629.9,1096,633.9L1096,633.9z" style="fill: rgb(255, 255, 255);" transform="matrix(1, 0, 0, 1, 0, 0)"/><path class="st2" d="M779,614.3c0,6.9-6.5,12.5-14.5,12.5h-45.9c-8,0-14.5-5.6-14.5-12.5V500.8c0-6.9,6.5-12.5,14.5-12.5h45.9&#10;&#9;&#9;c8,0,14.5,5.6,14.5,12.5V614.3z" style="fill: rgb(45, 21, 16);" transform="matrix(1, 0, 0, 1, 0, 0)"/><path class="st1" d="M737.8,618.7c0-2.1,1.7-3.9,3.9-3.9l0,0c2.1,0,3.9,1.7,3.9,3.9l0,0c0,2.1-1.7,3.9-3.9,3.9l0,0&#10;&#9;&#9;C739.5,622.5,737.8,620.8,737.8,618.7L737.8,618.7z" style="fill: rgb(255, 255, 255);" transform="matrix(1, 0, 0, 1, 0, 0)"/><path d="M 709.700012 497.700012 H 773.700012 V 612.600014 H 709.700012 V 497.700012 Z" class="st1" style="fill: rgb(190, 190, 190);" transform="matrix(1, 0, 0, 1, 0, 0)"/>
</svg>