<?xml version="1.0" encoding="utf-8"?>
<svg id="master-artboard" viewBox="0 0 737.8427734375 547.2275390625" version="1.1" xmlns="http://www.w3.org/2000/svg" x="0px" y="0px" style="enable-background:new 0 0 1400 980;" width="737.8427734375px" height="547.2275390625px"><rect id="ee-background" x="0" y="0" width="737.8427734375" height="547.2275390625" style="fill: white; fill-opacity: 0; pointer-events: none;"/>

<g transform="matrix(1.2206463813781738, 0, 0, 1.2206463813781738, -221.73859405517578, -533.6253356933594)">
	<path d="M 0 0 H 1400 V 980 H 0 V 0 Z" class="st0" style="fill: rgb(38, 152, 224);"/>
</g>












<g transform="matrix(1, 0, 0, 1, 87.16617584228516, -449.59405517578125)">
	<path d="M 316.1000061035156 853.0999755859375 L 251.3000030517578 853.0999755859375 L 251.1999969482422 790.9000244140625 L 316.1000061035156 790.7999877929688 Z" class="st2" style="fill: rgb(35, 31, 32);"/>
</g>
<g transform="matrix(1, 0, 0, 1, 87.16617584228516, -449.59405517578125)">
	<path d="M 409 864.5 L 158.39999389648438 864.5999755859375 L 158.39999389648438 845.2000122070312 L 409 845 Z" class="st2" style="fill: rgb(35, 31, 32);"/>
</g>
<path class="st1" d="M463.3,792.5c0,2.4-2,4.4-4.4,4.4l-355.1,0.3c-2.4,0-4.4-2-4.4-4.4l-0.1-187.7c0-2.4,2-4.4,4.4-4.4l355.1-0.3&#10;&#9;c2.4,0,4.4,2,4.4,4.4L463.3,792.5z" style="fill: rgb(211, 211, 211);" transform="matrix(1, 0, 0, 1, 87.16617584228516, -449.59405517578125)"/>
<g transform="matrix(1, 0, 0, 1, 87.16617584228516, -449.59405517578125)">
	<path class="st2" d="M453.5,805l-343.1,0.2c-11.7,0-21.3-9.5-21.3-21.3L89,610c0-11.7,9.5-21.3,21.3-21.3l343.1-0.2&#10;&#9;&#9;c11.7,0,21.3,9.5,21.3,21.3l0.1,174C474.8,795.5,465.2,805,453.5,805z M110.2,608.1c-1,0-1.8,0.8-1.8,1.8l0.1,174&#10;&#9;&#9;c0,1,0.8,1.8,1.8,1.8l343.1-0.2c1,0,1.8-0.8,1.8-1.8l-0.1-174c0-1-0.8-1.8-1.8-1.8L110.2,608.1z" style="fill: rgb(35, 31, 32);"/>
</g>








</svg>